<?xml version="1.0" encoding="UTF-8"?>
<svg width="16px" height="16px" viewBox="0 0 16 16" version="1.1" xmlns="http://www.w3.org/2000/svg" xmlns:xlink="http://www.w3.org/1999/xlink">
    <title>安装与升级</title>
    <g id="页面-1" stroke="none" stroke-width="1" fill="none" fill-rule="evenodd">
        <g id="04-流程图入口备份" transform="translate(-48.000000, -154.000000)">
            <g id="安装与升级" transform="translate(48.000000, 154.000000)">
                <rect id="矩形" fill="#D8D8D8" opacity="0" x="0" y="0" width="16" height="16"></rect>
                <g id="安装-(1)" transform="translate(1.000000, 1.000000)" fill="#000000" fill-opacity="0.65" fill-rule="nonzero">
                    <path d="M4.0774678,3.59008221 C4.28496615,3.59008221 4.45246483,3.75758089 4.45246483,3.96507925 C4.45246483,4.1725776 4.28496615,4.34007628 4.0774678,4.34007628 L2.67747886,4.34007628 L1.632,5.685 L11.692,5.685 L10.6524159,4.34007628 L9.25242693,4.34007628 C9.04492857,4.34007628 8.87742989,4.1725776 8.87742989,3.96507925 C8.87742989,3.75758089 9.04492857,3.59008221 9.25242693,3.59008221 L10.8349144,3.59008221 C10.9499135,3.59008221 11.0599127,3.64258179 11.1324121,3.73508105 L12.8199868,5.91421797 C13.1328109,6.10560629 13.3298947,6.40081472 13.3298947,6.73755735 L13.3298947,12.9475083 C13.3298947,13.5375036 12.7248995,14 11.9524056,14 L1.37748912,14 C0.604995217,14 0,13.5375037 0,12.9475083 L0,6.73755735 C0,6.4039456 0.19343607,6.1110993 0.501212506,5.91958316 L2.19748265,3.73508105 C2.2674821,3.64258178 2.37748122,3.59008221 2.49498029,3.59008221 L4.0774678,3.59008221 Z M11.9524056,6.43505973 L1.37748912,6.43505973 C0.999992093,6.43505973 0.749994077,6.61755829 0.749994077,6.73755735 L0.749994077,12.9475083 C0.749994077,13.0675074 0.999992108,13.2500059 1.37748912,13.2500059 L11.9524056,13.2500059 C12.3299026,13.2500059 12.5799006,13.0675074 12.5799006,12.9475083 L12.5799006,6.73755735 C12.5799006,6.61755829 12.3299026,6.43505973 11.9524056,6.43505973 Z M9.25242693,9.3775365 C9.45992528,9.3775365 9.62742397,9.54503518 9.62742397,9.75253354 C9.62742397,9.96003189 9.45992528,10.1275306 9.25242693,10.1275306 L4.0774678,10.1275306 C3.86996944,10.1275306 3.70247076,9.96003189 3.70247076,9.75253354 C3.70247076,9.54503518 3.86996944,9.3775365 4.0774678,9.3775365 L9.25242693,9.3775365 Z M6.77494649,0.00011054815 C6.87744567,0.00261053329 6.9749449,0.0476101779 7.04244439,0.122609586 L9.10992805,2.39509164 C9.20992727,2.50509077 9.23492706,2.66258952 9.17492754,2.80008844 C9.11492801,2.93758736 8.97992908,3.02258668 8.83243024,3.02258668 L7.85743794,3.02258668 L7.85743794,4.63507395 C7.85743794,4.84007233 7.68743929,5.01007098 7.48244091,5.01007098 L5.949953,5.01007098 C5.74245465,5.01007098 5.57495596,4.8425723 5.57495596,4.63507395 L5.57495596,3.02258668 L4.49246452,3.02258668 C4.33996572,3.02258668 4.20496679,2.93008741 4.14496726,2.79008852 C4.08746772,2.65008963 4.11996745,2.4875909 4.22746661,2.38259174 L6.49994866,0.110109689 C6.57244809,0.0376102667 6.66994732,-0.00238942234 6.77494649,0.00011054815 Z M6.75244667,0.917603308 L5.39745737,2.2725926 L5.949953,2.2725926 C6.15745136,2.2725926 6.32495004,2.44009128 6.32495004,2.64758964 L6.32495004,4.26007691 L7.10744387,4.26007691 L7.10744387,2.64758964 C7.10744387,2.44009128 7.27494255,2.2725926 7.48244091,2.2725926 L7.98493694,2.2725926 L6.75244667,0.917603308 Z" id="形状结合"></path>
                </g>
            </g>
        </g>
    </g>
</svg>