<?xml version="1.0" encoding="UTF-8"?>
<svg width="16px" height="16px" viewBox="0 0 16 16" version="1.1" xmlns="http://www.w3.org/2000/svg" xmlns:xlink="http://www.w3.org/1999/xlink">
    <title>用户手册</title>
    <g id="页面-1" stroke="none" stroke-width="1" fill="none" fill-rule="evenodd">
        <g id="04-流程图入口备份" transform="translate(-48.000000, -202.000000)">
            <g id="用户手册" transform="translate(48.000000, 202.000000)">
                <rect id="矩形备份-9" fill="#D8D8D8" opacity="0" x="0" y="0" width="16" height="16"></rect>
                <g id="课程-(3)" transform="translate(1.000000, 2.000000)" fill="#000000" fill-opacity="0.65" fill-rule="nonzero">
                    <path d="M4.92500001,0 C5.70000001,0 6.475,0.274999995 7,0.749999999 C7.525,0.274999995 8.32499999,0 9.07499999,0 L13.625,0 C13.825,0 14,0.175000005 14,0.375 L14,10.775 C14,10.975 13.825,11.15 13.625,11.15 L9.875,11.15 C8.225,11.125 7.95000001,11.275 7.825,11.35 C7.775,11.4 7.75,11.45 7.72499999,11.525 C7.69999999,11.675 7.54999999,11.8 7.375,11.8 L6.625,11.8 C6.45,11.8 6.3,11.675 6.25,11.525 L6.175,11.375 C6,11.2 5.45000001,11.125 4.5,11.15 L0.375,11.15 C0.175000005,11.15 0,10.975 0,10.775 L0,0.375 C0,0.175000005 0.175000005,0 0.375,0 L4.92500001,0 Z M4.9,0.749999999 L0.749999999,0.749999999 L0.749999999,10.4 L4.5,10.4 C5.94394736,10.3767105 6.3898795,10.5703809 6.62604573,10.7788958 L6.625,1.443 L6.59917535,1.4152199 C6.20434028,1.02309027 5.54166667,0.749999999 4.9,0.749999999 Z M13.25,0.749999999 L12.524,0.749 L12.525,3.64999999 C12.525,3.77499999 12.45,3.9 12.325,3.975 C12.2,4.05 12.075,4.05 11.95,3.975 L11,3.42499999 L10.05,3.975 C10,4 9.925,4.02499999 9.875,4.02499999 C9.8,4.02499999 9.75000001,4 9.7,3.975 C9.575,3.925 9.5,3.79999999 9.5,3.64999999 L9.5,0.749 L9.07499999,0.749999999 C8.43282608,0.749999999 7.769612,1.00248204 7.37488878,1.41093577 L7.375,10.75 L7.375,10.75 L7.4,10.725 C7.675,10.525 8.075,10.375 9.89999999,10.4 L13.25,10.4 L13.25,0.749999999 Z M5.425,7.02499999 C5.625,7.02499999 5.8,7.19999999 5.8,7.39999999 C5.8,7.59999998 5.625,7.77499999 5.425,7.77499999 L1.9,7.77499999 C1.70000001,7.77499999 1.525,7.59999998 1.525,7.39999999 C1.525,7.19999999 1.70000001,7.02499999 1.9,7.02499999 L5.425,7.02499999 Z M11.925,7.02499999 C12.125,7.02499999 12.3,7.19999999 12.3,7.39999999 C12.3,7.59999998 12.125,7.77499999 11.925,7.77499999 L8.39999999,7.77499999 C8.2,7.77499999 8.02499999,7.59999998 8.02499999,7.39999999 C8.02499999,7.19999999 8.2,7.02499999 8.39999999,7.02499999 L11.925,7.02499999 Z M5.425,4.97499999 C5.625,4.97499999 5.8,5.14999999 5.8,5.34999999 C5.8,5.54999998 5.625,5.72499999 5.425,5.72499999 L1.9,5.72499999 C1.70000001,5.72499999 1.525,5.54999998 1.525,5.34999999 C1.525,5.14999999 1.70000001,4.97499999 1.9,4.97499999 L5.425,4.97499999 Z M11.925,4.97499999 C12.125,4.97499999 12.3,5.14999999 12.3,5.34999999 C12.3,5.54999998 12.125,5.72499999 11.925,5.72499999 L8.39999999,5.72499999 C8.2,5.72499999 8.02499999,5.54999998 8.02499999,5.34999999 C8.02499999,5.14999999 8.2,4.97499999 8.39999999,4.97499999 L11.925,4.97499999 Z M5.425,2.925 C5.625,2.925 5.8,3.1 5.8,3.3 C5.8,3.49999999 5.625,3.675 5.425,3.675 L1.9,3.675 C1.70000001,3.675 1.525,3.49999999 1.525,3.3 C1.525,3.1 1.70000001,2.925 1.9,2.925 L5.425,2.925 Z M11.775,0.749999999 L10.25,0.749999999 L10.25,3 L10.825,2.67499999 C10.95,2.59999999 11.075,2.59999999 11.2,2.67499999 L11.775,3 L11.775,0.749999999 Z" id="形状结合"></path>
                </g>
            </g>
        </g>
    </g>
</svg>