<?xml version="1.0" encoding="UTF-8"?>
<svg width="16px" height="16px" viewBox="0 0 16 16" version="1.1" xmlns="http://www.w3.org/2000/svg" xmlns:xlink="http://www.w3.org/1999/xlink">
    <title>研发手册</title>
    <g id="页面-1" stroke="none" stroke-width="1" fill="none" fill-rule="evenodd">
        <g id="04-流程图入口备份" transform="translate(-48.000000, -250.000000)">
            <g id="研发手册" transform="translate(48.000000, 250.000000)">
                <rect id="矩形备份-15" fill="#D8D8D8" opacity="0" x="0" y="0" width="16" height="16"></rect>
                <g id="安装-(5)" transform="translate(1.000000, 2.000000)" fill="#000000" fill-opacity="0.65" fill-rule="nonzero">
                    <path d="M12.57,0 C13.36,0 14,0.642499995 14,1.42999999 L14,11.0975 C14,11.885 13.3575,12.5275 12.57,12.5275 L1.43000001,12.5275 C0.642500009,12.5275 0,11.885 0,11.095 L0,1.42999999 C0,0.63999999 0.642499995,0 1.43000001,0 L12.57,0 Z M13.249,3.194 L0.749,3.194 L0.749999999,11.0975 C0.749999999,11.4725 1.05499999,11.7775 1.43000001,11.7775 L12.57,11.7775 C12.945,11.7775 13.25,11.4725 13.25,11.0975 L13.249,3.194 Z M7.88,4.16749999 C8.08,4.22499999 8.195,4.4325 8.13749999,4.63 L6.58250001,10.1025 C6.53750001,10.265 6.38750001,10.375 6.22250001,10.375 C6.18750001,10.375 6.15500001,10.37 6.12,10.36 C5.92,10.3025 5.805,10.095 5.86250001,9.89749999 L7.41749999,4.425 C7.47499999,4.225 7.6825,4.1125 7.88,4.16749999 Z M10.135,5.25499999 L11.8775,6.9975 C12.025,7.14499999 12.025,7.3825 11.8775,7.52749999 L10.135,9.26999999 C10.0625,9.34499999 9.965,9.37999999 9.86999999,9.37999999 C9.775,9.37999999 9.6775,9.34249999 9.605,9.26999999 C9.53415699,9.20001652 9.49428474,9.10458121 9.49428474,9.005 C9.49428474,8.90541878 9.53415699,8.80998347 9.605,8.74 L11.0825,7.2625 L9.605,5.785 C9.45750001,5.63750001 9.45750001,5.4 9.605,5.25499999 C9.7525,5.10999999 9.99000001,5.1075 10.135,5.25499999 Z M4.395,5.25499999 C4.53999999,5.40249999 4.54249999,5.64 4.395,5.785 L2.9175,7.2625 L4.395,8.74 C4.54249999,8.88749999 4.54249999,9.125 4.395,9.26999999 C4.3225,9.34499999 4.225,9.37999999 4.13000001,9.37999999 C4.03500001,9.37999999 3.93750001,9.34249999 3.865,9.26999999 L2.1225,7.52749999 C2.05165699,7.45751652 2.01178474,7.36208121 2.01178474,7.26249999 C2.01178474,7.16291878 2.05165699,7.06748346 2.1225,6.9975 L3.865,5.25499999 C4.0125,5.1075 4.25000001,5.1075 4.395,5.25499999 Z M1.43000001,0.747499995 C1.05500001,0.747499995 0.749999999,1.05499999 0.749999999,1.42999999 L0.749,2.444 L13.249,2.444 L13.25,1.42999999 C13.25,1.05499999 12.945,0.749999999 12.57,0.749999999 L1.43000001,0.749999999 L1.43000001,0.747499995 Z" id="形状结合"></path>
                </g>
            </g>
        </g>
    </g>
</svg>