<?xml version="1.0" encoding="UTF-8"?>
<svg width="16px" height="16px" viewBox="0 0 16 16" version="1.1" xmlns="http://www.w3.org/2000/svg" xmlns:xlink="http://www.w3.org/1999/xlink">
    <title>第三方开源软件及许可说明备份 2</title>
    <g id="页面-1" stroke="none" stroke-width="1" fill="none" fill-rule="evenodd">
        <g id="04-流程图入口备份" transform="translate(-28.000000, -702.000000)">
            <g id="第三方开源软件及许可说明备份-2" transform="translate(28.000000, 702.000000)">
                <rect id="矩形备份-18" fill="#D8D8D8" opacity="0" x="0" y="0" width="16" height="16"></rect>
                <g id="Redis" transform="translate(1.000000, 1.000000)" fill="#000000" fill-opacity="0.45" fill-rule="nonzero">
                    <path d="M12.6792453,0 C13.3485467,0 13.9049034,0.508250733 13.9718336,1.16591777 L13.9785824,1.29933707 L13.9785824,12.7006629 C13.9785824,13.3699643 13.4703316,13.9263211 12.8126646,13.9932512 L12.6792453,14 L10.0448751,14 L10.0448751,13.1075982 L12.6792453,13.1075982 C12.8791433,13.1075982 13.0462455,12.9654832 13.0848977,12.7769075 L13.0933197,12.6935237 L13.1004589,12.6935237 L13.1004589,1.29933707 C13.1004589,1.09943906 12.958344,0.932336818 12.7697683,0.893684663 L12.6863845,0.885262621 L1.29933707,0.885262621 C1.09943906,0.885262621 0.932336818,1.02737761 0.893684663,1.21595328 L0.885262621,1.29933707 L0.885262621,12.6792453 C0.885262621,12.8791433 1.02737761,13.0462455 1.21595328,13.0848977 L1.29933707,13.0933197 L3.77664457,13.0933197 L3.77664457,13.9857216 L1.29933707,13.9857216 C0.630035696,13.9857216 0.0736789266,13.4774708 0.00674878888,12.8198038 L0,12.6863845 L0,1.29933707 C0,0.630035696 0.508250733,0.0736789266 1.16591777,0.00674878888 L1.29933707,0 L12.6792453,0 Z M6.22539521,13.1004589 L6.22539521,13.9928608 L5.2972973,13.9928608 L5.2972973,13.1004589 L6.22539521,13.1004589 Z M8.34574197,13.1004589 L8.34574197,13.9928608 L7.41764406,13.9928608 L7.41764406,13.1004589 L8.34574197,13.1004589 Z M11.1514533,9.20958695 C11.2514023,9.4309026 11.1514533,9.69505354 10.9301377,9.80214176 L7.46047935,11.3656298 C7.29627741,11.4370219 7.13207547,11.472718 6.96073432,11.472718 C6.78939317,11.472718 6.62519123,11.4370219 6.46812851,11.3656298 L2.99847017,9.80214176 C2.77715451,9.70219276 2.67720551,9.43804182 2.77715451,9.20958695 C2.87710352,8.98827129 3.14125446,8.88832228 3.36970933,8.98827129 L6.83936767,10.5517593 C6.91789903,10.5874554 7.01070882,10.5874554 7.08924018,10.5517593 L10.5588985,8.98827129 C10.7802142,8.88832228 11.0443651,8.98827129 11.1514533,9.20958695 Z M11.1514533,6.97501275 C11.2514023,7.1963284 11.1514533,7.46047935 10.9301377,7.56756757 L7.46047935,9.13105558 C7.29627741,9.20958695 7.13207547,9.2381438 6.96073432,9.2381438 C6.78939317,9.2381438 6.62519123,9.20244773 6.46812851,9.13105558 L2.99847017,7.56756757 C2.77715451,7.46761856 2.67720551,7.20346762 2.77715451,6.97501275 C2.87710352,6.75369709 3.14125446,6.65374809 3.36970933,6.75369709 L6.83936767,8.31718511 C6.91789903,8.35288118 7.01070882,8.35288118 7.08924018,8.31718511 L10.5588985,6.75369709 C10.7802142,6.65374809 11.0443651,6.75369709 11.1514533,6.97501275 Z M7.45334013,2.84854666 L10.9229985,4.41917389 C11.1086181,4.50484447 11.2228455,4.68332483 11.2228455,4.89036206 C11.2228455,5.09026007 11.1014788,5.27587965 10.9229985,5.36155023 L7.45334013,6.91789903 C7.29627741,6.98929118 7.13207547,7.02498725 6.96073432,7.02498725 C6.78939317,7.02498725 6.62519123,6.98929118 6.46812851,6.91789903 L2.99847017,5.35441101 C2.81285059,5.26874044 2.69862315,5.09026007 2.69862315,4.88322285 C2.69862315,4.68332483 2.8199898,4.49770525 2.99847017,4.41203468 L6.46812851,2.84854666 C6.78225395,2.70576237 7.13921469,2.70576237 7.45334013,2.84854666 Z M6.83222845,3.66241713 L4.12646609,4.88322285 L6.83222845,6.10402856 C6.91075982,6.13972463 7.00356961,6.13972463 7.08210097,6.10402856 L9.78786334,4.88322285 L7.08210097,3.66241713 C7.00356961,3.62672106 6.91075982,3.62672106 6.83222845,3.66241713 Z" id="形状结合"></path>
                </g>
            </g>
        </g>
    </g>
</svg>