<?xml version="1.0" encoding="UTF-8"?>
<svg width="16px" height="16px" viewBox="0 0 16 16" version="1.1" xmlns="http://www.w3.org/2000/svg" xmlns:xlink="http://www.w3.org/1999/xlink">
    <title>贡献手册</title>
    <g id="页面-1" stroke="none" stroke-width="1" fill="none" fill-rule="evenodd">
        <g id="04-流程图入口备份" transform="translate(-48.000000, -298.000000)">
            <g id="贡献手册" transform="translate(48.000000, 298.000000)">
                <rect id="矩形备份-16" fill="#D8D8D8" opacity="0" x="0" y="0" width="16" height="16"></rect>
                <g id="政策-(1)" transform="translate(1.000000, 1.000000)" fill="#000000" fill-opacity="0.65" fill-rule="nonzero">
                    <path d="M1.30232559,0 L7,1.963 L12.6976744,0 L12.7728086,0 C13.4490161,0 14,0.550983905 14,1.22719142 L14,10.1431127 C14,10.5438283 13.8246869,11.0948122 12.9481216,11.3953488 L7.01252236,13.3738819 L1.05187835,11.3703041 C0.175313064,11.0447227 0,10.5187835 0,10.118068 L0,1.22719142 C0,0.550983905 0.550983905,0 1.22719142,0 L1.30232559,0 Z M12.822898,0.751341681 L7.015,2.744 L7.01252236,2.75491949 L7,2.75 L6.98747764,2.75491949 L6.984,2.744 L1.17710198,0.751341681 C0.926654745,0.776386409 0.751341696,0.976744186 0.751341681,1.22719142 L0.751341681,10.1431127 C0.751341681,10.2683363 0.751341681,10.4937388 1.30232559,10.6940966 L7.01,12.565 L12.7227191,10.6690519 C13.2048301,10.4853906 13.245006,10.2806848 13.248354,10.1513885 L13.2486583,1.22719142 C13.2486583,0.976744186 13.0733453,0.776386409 12.822898,0.751341681 Z M4.03220037,4.00715564 C4.15742399,4.00715564 4.30769231,4.08228981 4.38282648,4.20751342 L4.9588551,5.35957066 L6.23613595,5.48479427 C6.38640429,5.509839 6.5116279,5.61001788 6.56171736,5.73524151 C6.6118068,5.88550984 6.56171736,6.03577818 6.46153846,6.13595706 L5.53488373,7.01252236 L5.76028623,8.26475849 C5.78533096,8.41502683 5.73524151,8.54025044 5.6100179,8.64042934 C5.48479429,8.7155635 5.33452595,8.74060823 5.20930233,8.66547406 L4.13237925,8.08944543 L3.05545618,8.7155635 C2.93023257,8.79069767 2.88014312,8.79069767 2.80500895,8.79069767 C2.72987478,8.79069767 2.65474061,8.76565294 2.60465117,8.7155635 C2.47942756,8.64042934 2.42933811,8.490161 2.45438284,8.33989266 L2.65474061,7.11270124 L1.77817532,6.23613595 C1.67799643,6.13595706 1.65295171,5.98568872 1.67799643,5.86046511 C1.72808587,5.73524151 1.82826476,5.63506261 1.9785331,5.61001788 L3.15563506,5.38461538 L3.70661897,4.23255814 C3.75670841,4.10733453 3.90697674,4.00715564 4.03220037,4.00715564 Z M4.00715564,5.25939177 L3.70661897,5.88550984 C3.65652953,5.98568874 3.55635063,6.06082291 3.43112702,6.08586762 L2.77996422,6.23613595 L3.3059034,6.7370304 C3.38103757,6.81216457 3.43112701,6.93738818 3.40608229,7.0626118 L3.3059034,7.68872988 L3.88193203,7.33810375 C4.00715564,7.26296958 4.13237926,7.26296958 4.25760287,7.33810375 L4.83363149,7.63864042 L4.70840788,6.96243291 C4.68336315,6.8372093 4.73345261,6.71198568 4.80858676,6.63685152 L5.30948122,6.18604651 L4.63327371,6.11091235 C4.5080501,6.08586762 4.38282648,6.01073345 4.33273704,5.91055455 L4.00715564,5.25939177 Z M12.3470483,3.65652951 C12.4221825,3.85688729 12.3220036,4.05724508 12.1216458,4.13237925 L8.31484795,5.43470483 C8.26475851,5.45974955 8.23971378,5.45974955 8.18962433,5.45974955 C8.03935599,5.45974955 7.88908765,5.35957065 7.83899821,5.20930233 C7.76386405,5.00894455 7.86404294,4.80858676 8.06440072,4.73345259 L11.8711986,3.43112701 C12.0715563,3.35599284 12.2719141,3.45617173 12.3470483,3.65652951 Z M12.3470483,5.86046511 C12.4221825,6.06082289 12.3220036,6.26118068 12.1216458,6.33631485 L8.31484795,7.63864042 C8.26475851,7.63864042 8.23971378,7.66368515 8.18962433,7.66368515 C8.03935599,7.66368515 7.88908765,7.56350625 7.83899821,7.41323792 C7.76386405,7.21288014 7.86404294,7.01252235 8.06440072,6.9373882 L11.8711986,5.63506261 C12.0715563,5.55992844 12.2719141,5.66010734 12.3470483,5.86046511 Z M12.3470483,8.21466905 C12.4221825,8.41502683 12.3220036,8.61538462 12.1216458,8.69051878 L8.31484795,9.99284436 C8.26475851,10.0178891 8.23971378,10.0178891 8.18962433,10.0178891 C8.03935599,10.0178891 7.88908765,9.91771019 7.83899821,9.76744186 C7.76386405,9.56708408 7.86404294,9.36672629 8.06440072,9.29159212 L11.8711986,7.98926655 C12.0715563,7.91413238 12.2719141,8.01431128 12.3470483,8.21466905 Z" id="形状结合"></path>
                </g>
            </g>
        </g>
    </g>
</svg>