<?xml version="1.0" encoding="UTF-8"?>
<svg width="16px" height="16px" viewBox="0 0 16 16" version="1.1" xmlns="http://www.w3.org/2000/svg" xmlns:xlink="http://www.w3.org/1999/xlink">
    <title>软件使用许可和合约</title>
    <g id="页面-1" stroke="none" stroke-width="1" fill="none" fill-rule="evenodd">
        <g id="04-流程图入口备份" transform="translate(-28.000000, -346.000000)">
            <g id="软件使用许可和合约" transform="translate(28.000000, 346.000000)">
                <rect id="矩形备份-18" fill="#D8D8D8" opacity="0" x="0" y="0" width="16" height="16"></rect>
                <g id="合同" transform="translate(2.000000, 1.000000)" fill="#000000" fill-opacity="0.65" fill-rule="nonzero">
                    <path d="M10.915,0 C11.65,0 12.2475078,0.662500004 12.2475078,1.48 L12.2475078,12.5225 C12.25,13.3375 11.6525,14 10.9175,14 L1.33249999,14 C0.597499995,14 0,13.3375 0,12.52 L0,1.48 C0,0.662500004 0.597499995,0 1.33249999,0 L10.915,0 Z M10.9175,0.749999999 L1.33249999,0.749999999 C1.0125,0.749999999 0.749999999,1.07750001 0.749999999,1.48 L0.749999999,12.5225 C0.749999999,12.925 1.0125,13.2525 1.33249999,13.2525 L10.915,13.2525 C11.2375,13.2525 11.4975177,12.925 11.4975177,12.5225 L11.4975177,1.48 C11.5,1.07750001 11.2375,0.749999999 10.9175,0.749999999 Z M8.93499998,11.065 C9.14249998,11.065 9.30999998,11.2325 9.30999998,11.44 C9.30999998,11.6475 9.14249998,11.815 8.93749999,11.815 L3.31249999,11.815 C3.105,11.815 2.93749999,11.6475 2.93749999,11.44 C2.93749999,11.2325 3.105,11.065 3.31249999,11.065 L8.93499998,11.065 Z M8.93499998,8.82749999 C9.14249998,8.82749999 9.30999998,8.995 9.30999998,9.20249999 C9.30999998,9.40999999 9.14249998,9.57749999 8.93749999,9.57749999 L3.31249999,9.57749999 C3.105,9.57749999 2.93749999,9.40999999 2.93749999,9.20249999 C2.93749999,8.995 3.105,8.82749999 3.31249999,8.82749999 L8.93499998,8.82749999 Z M6.12499999,1.62500001 C6.26749999,1.62500001 6.3975,1.705 6.45999999,1.8325 L7.18749999,3.29750001 L8.80999999,3.535 C8.94999998,3.555 9.06749999,3.655 9.11249999,3.79 C9.15749999,3.925 9.11999999,4.075 9.01749998,4.17500001 L7.83749999,5.33000001 L8.11749998,6.935 C8.14249999,7.075 8.08499998,7.22 7.96749998,7.3025 C7.85249998,7.38750001 7.69749998,7.3975 7.57249999,7.33 L6.12499999,6.56000001 L4.67749999,7.3325 C4.62249999,7.36 4.56,7.375 4.5,7.375 C4.38935593,7.37432908 4.28457668,7.32515025 4.21336485,7.24046592 C4.14215303,7.15578158 4.11167907,7.04411877 4.12999999,6.935 L4.41249999,5.33000001 L3.22999999,4.17500001 C3.1275,4.075 3.09249999,3.92750001 3.135,3.79 C3.17750001,3.6525 3.29749999,3.555 3.43749999,3.535 L5.06749999,3.29750001 L5.78499999,1.8325 C5.84999998,1.70750001 5.97999999,1.62500001 6.12499999,1.62500001 Z M6.1275,2.85 L5.65749999,3.81 C5.60249998,3.91999999 5.49749998,3.9975 5.37499999,4.015 L4.29999999,4.17 L5.07999999,4.93250001 C5.16749998,5.02 5.20749999,5.14250001 5.18749999,5.265 L5.00499999,6.3075 L5.94999999,5.805 C6.00249999,5.775 6.06499999,5.76 6.12499999,5.76 C6.18499999,5.76 6.2475,5.775 6.30249999,5.805 L7.24999999,6.31 L7.06749999,5.2675 C7.04749999,5.145 7.08749998,5.02250001 7.17499999,4.935 L7.95499999,4.17 L6.88749999,4.015 C6.76499998,3.9975 6.65999998,3.92000001 6.60499999,3.81 L6.1275,2.85 Z" id="形状结合"></path>
                </g>
            </g>
        </g>
    </g>
</svg>