<?xml version="1.0" encoding="UTF-8"?>
<svg version="1.1" xmlns="http://www.w3.org/2000/svg" width="1200" height="1200">
    <path d="M0 0 C49.5 0 99 0 150 0 C150 49.5 150 99 150 150 C100.5 150 51 150 0 150 C0 100.5 0 51 0 0 Z " fill="#FCFDFE" transform="translate(0,0)"/>
    <path d="M0 0 C3.4375 1.9375 3.4375 1.9375 6 5 C6.86085005 8.51850794 6.83827014 11.47810114 6 15 C2.68807011 19.13991237 -0.87233514 20.40166222 -5.75 22.3125 C-17.98299841 27.19357248 -26.17169559 36.01891889 -31.4375 48 C-35.30218799 59.71067093 -34.15277323 73.59095764 -28.74609375 84.5390625 C-22.75750647 95.34136436 -15.24375001 101.1302931 -4 106 C-3.24074219 106.37511719 -2.48148438 106.75023438 -1.69921875 107.13671875 C9.72803618 110.79145586 22.58586958 108.23084176 33 103 C33.69480469 102.62359375 34.38960938 102.2471875 35.10546875 101.859375 C38.32111705 100.40073041 41.58061085 100.44869733 45 101 C50.5 104 50.5 104 52 107 C52.37700303 111.99529016 52.2740617 115.11205173 49 119 C35.01858869 130.40022768 16.19644793 131.260894 -1 130 C-5.60143549 129.15333587 -9.70816081 127.84537063 -14 126 C-14.89976563 125.61457031 -15.79953125 125.22914063 -16.7265625 124.83203125 C-33.09045073 117.19390215 -45.28248033 103.6092385 -51.95703125 86.95703125 C-52.30121094 85.98121094 -52.64539063 85.00539063 -53 84 C-53.36738281 83.00742188 -53.73476563 82.01484375 -54.11328125 80.9921875 C-55.6949766 75.2533415 -55.36877619 69.21578196 -55.375 63.3125 C-55.41173828 61.50749023 -55.41173828 61.50749023 -55.44921875 59.66601562 C-55.50466956 42.55944184 -48.18037095 28.66607682 -36.54296875 16.34765625 C-27.3470083 7.85799076 -13.04091603 -3.09445465 0 0 Z " fill="#539EF7" transform="translate(62,12)"/>
    <path d="M0 0 C3.0603333 1.7655769 5.50587755 3.50587755 8 6 C8.44816977 11.46767125 8.42965236 14.50221438 5 19 C2.29296875 20.5546875 2.29296875 20.5546875 -0.8125 21.875 C-7.08243291 24.82421875 -11.10397371 27.94812807 -14.06005859 34.26538086 C-15.0824787 37.23995947 -15.20174723 39.42865468 -15.125 42.5625 C-15.10953125 43.60664062 -15.0940625 44.65078125 -15.078125 45.7265625 C-15.05234375 46.80679688 -15.0265625 47.88703125 -15 49 C-14.94879172 51.14562684 -14.90679263 53.29149766 -14.875 55.4375 C-14.85179687 56.38496094 -14.82859375 57.33242187 -14.8046875 58.30859375 C-15.25479634 64.51109362 -18.51918624 68.93579082 -23 73 C-29.30593795 77.33805042 -35.37755414 79.3142148 -43 78 C-50.9227098 75.69338829 -55.54633075 69.72007919 -59.9375 63.0625 C-62.10691907 56.80946856 -61.5518318 50.90074251 -58.9765625 44.84765625 C-56.12399392 39.45059649 -52.22466859 36.00061228 -47 33 C-43.484375 32.34765625 -43.484375 32.34765625 -39.75 32.0625 C-31.23425763 31.17882048 -24.36882239 28.9599268 -18.5 22.5 C-15.36289505 18.39083436 -14.06200136 15.3020286 -13.8125 10.0625 C-13.43711412 6.52985071 -12.41371344 4.91296773 -9.8125 2.5 C-6.45043778 -0.01125464 -4.23845743 -0.90179945 0 0 Z " fill="#3A94F9" transform="translate(111,21)"/>
    <path d="M0 0 C3.14183141 3.75487168 3.46572175 5.90781917 3.125 10.69921875 C2.42266641 13.64999531 1.17080945 15.29199735 -1.34375 17 C-3.90097993 18.29769877 -6.51748875 19.32901621 -9.1875 20.375 C-21.42049841 25.25607248 -29.60919559 34.08141889 -34.875 46.0625 C-38.73968799 57.77317093 -37.59027323 71.65345764 -32.18359375 82.6015625 C-26.42712567 92.98516432 -19.02732802 98.92331876 -8.4375 104.0625 C-8.4375 104.3925 -8.4375 104.7225 -8.4375 105.0625 C-14.52505538 104.58690974 -19.04052867 103.25049463 -24.4375 100.4375 C-25.13810547 100.0763208 -25.83871094 99.7151416 -26.56054688 99.34301758 C-39.67306901 92.38195474 -48.4131343 81.02556282 -53.4375 67.0625 C-56.71798891 56.06937226 -57.99705903 41.94782851 -52.9375 31.375 C-51.26953125 28.62890625 -51.26953125 28.62890625 -49.4375 26.0625 C-48.82261719 25.18464844 -48.20773438 24.30679688 -47.57421875 23.40234375 C-38.24337244 11.00484654 -16.38242897 -9.23373269 0 0 Z " fill="#3476E5" transform="translate(65.4375,13.9375)"/>
    <path d="M0 0 C3.08798053 1.63138594 5.2664262 3.07505912 7.4375 5.8125 C8.30204969 9.17463767 7.82327073 11.64811202 7 15 C4.81383809 18.35211493 3.81940188 19.72686604 0 21 C-7.00473645 21.79085734 -7.00473645 21.79085734 -9.59765625 19.73046875 C-12.14791487 16.67461951 -13.87399973 14.13400242 -14.3125 10.1875 C-13.92588938 6.2440717 -12.72883513 4.80680184 -10 2 C-6.24543433 -0.50304378 -4.45254066 -0.45280074 0 0 Z " fill="#3F96F9" transform="translate(133,66)"/>
    <path d="M0 0 C3.37021602 2.0970233 5.89129539 4.11953387 7 8 C6.80743088 13.29565084 5.69046589 16.19770181 2 20 C-1.48950118 21.74475059 -5.20354453 21.71470405 -9 21 C-11.80237413 18.86704545 -13.42926677 16.14146646 -15 13 C-15.41906739 9.22839349 -15.31200824 7.49029866 -13.25 4.25 C-9.06482205 0.06482205 -5.96004385 -0.62737304 0 0 Z " fill="#4087F5" transform="translate(89,10)"/>
    <path d="M0 0 C2.87029869 1.79393668 4.49131638 2.98263276 6 6 C6.37593152 10.98109259 6.1765161 14.05673864 3 18 C0.3017982 20.11480682 -1.55721934 20.92463308 -4.9375 21.5 C-9.25011712 20.79589925 -10.88856971 19.03907145 -14 16 C-15.60086627 12.79826746 -15.49917089 9.47422941 -15 6 C-11.03690229 -0.20885308 -7.02452124 -0.90991208 0 0 Z " fill="#409FFF" transform="translate(128,92)"/>
    <path d="M0 0 C4.94768662 0.05320093 7.77611928 1.77611928 11.25 5.25 C11.96406499 9.00823678 12.08772418 12.74271933 10.19921875 16.140625 C8.42823005 18.29297705 6.75692714 19.99653643 4.25 21.25 C0.17090194 21.63482057 -2.04089873 21.69121857 -5.5625 19.5 C-8.7798429 16.19073302 -9.60146757 14.41704052 -10.1875 9.8125 C-9.63882608 5.34472668 -8.14808207 4.06792171 -4.75 1.25 C-3.75 0.25 -3.75 0.25 0 0 Z " fill="#3C8FF4" transform="translate(123.75,40.75)"/>
    <path d="M0 0 C0.66 0.33 1.32 0.66 2 1 C-2.29 5.29 -6.58 9.58 -11 14 C-11 10.30159372 -10.17133056 9.68584567 -7.75 7 C-7.14671875 6.319375 -6.5434375 5.63875 -5.921875 4.9375 C-4.06233388 3.06284066 -2.15205789 1.52358081 0 0 Z " fill="#D8E5FA" transform="translate(47,38)"/>
    <path d="M0 0 C0.66 0.33 1.32 0.66 2 1 C-0.97 3.97 -3.94 6.94 -7 10 C-7 6.04435836 -5.59478606 4.89133304 -3 2 C-2.01 1.34 -1.02 0.68 0 0 Z " fill="#52A3FB" transform="translate(61,56)"/>
    <path d="M0 0 C5.75 1.75 5.75 1.75 8 4 C5.36 3.67 2.72 3.34 0 3 C0 2.01 0 1.02 0 0 Z " fill="#3A76DA" transform="translate(49,115)"/>
</svg>
